<svg width="16" height="16" viewBox="0 0 16 16" fill="none" xmlns="http://www.w3.org/2000/svg">
<mask id="mask0_84_174" style="mask-type:alpha" maskUnits="userSpaceOnUse" x="2" y="0" width="16" height="16">
<path d="M18 16H16.1514L16.5625 14.7656H14.9219L14.8955 14.7812C14.8738 14.7572 14.8525 14.7324 14.8301 14.71C14.6819 14.5618 14.583 14.4844 14.5791 14.4814C14.5791 14.4814 13.298 15.9284 9.8457 15.8906C6.55464 15.8572 5.54883 14.4932 5.54883 14.4932C5.54883 14.4932 5.33955 14.636 5.17676 14.7959C4.99387 14.9762 4.91182 15.1051 4.89648 15.1309L4.53125 14.7656L3.60547 16H2V0H18V16Z" fill="#D9D9D9"/>
</mask>
<g mask="url(#mask0_84_174)">
<path d="M12.0996 1.36713L7.82301 4.20029C7.82301 4.20029 7.96837 4.40671 8.06722 4.5012C8.27364 4.69889 8.40738 4.76431 8.40738 4.76431L8.32306 5.05504L7.25754 5.67284C7.25754 5.67284 7.21974 6.16126 7.76341 6.44327C8.21404 6.67731 8.66322 6.67876 8.66322 6.67876V7.38087C8.66322 7.38087 9.11094 8.25306 10.0209 8.25306C10.9309 8.25306 11.3656 7.26022 11.3656 7.26022L11.3772 6.65405C11.3772 6.65405 11.7871 6.61335 12.1781 6.38512C12.4747 6.21069 12.5794 5.92577 12.5823 5.68301C12.5852 5.47659 12.5663 5.43589 12.5663 5.43589L11.3278 4.78902C11.3278 4.78902 11.8787 4.45468 12.1752 3.69878C12.7334 2.28147 12.0996 1.36713 12.0996 1.36713ZM9.81306 10.544L6.72986 11.2781C6.72986 11.2781 6.64846 11.3915 6.64991 11.5136C6.65282 11.7186 6.74004 11.7665 6.74004 11.7665L5.5088 13.2594C5.5088 13.2594 5.36489 13.5545 5.37216 13.9281C5.37942 14.2857 5.5277 14.5052 5.54805 14.495L5.14829 15.0285L4.89391 15.1375C4.89391 15.1375 4.75581 15.3614 4.77325 15.6347C4.79506 15.9719 5.0131 16.331 5.86349 16.7249C6.74295 17.1334 7.69363 17.4997 9.89882 17.4997C12.104 17.4997 13.7757 17.0636 14.4662 16.5796C15.1567 16.0955 15.2119 15.6739 15.2235 15.4922C15.2324 15.3571 15.2048 15.222 15.1436 15.1012C15.1378 15.091 15.1247 15.0707 15.1247 15.0707L14.5796 14.482C14.5796 14.482 14.7104 14.1578 14.6944 13.8133C14.6741 13.3786 14.4546 13.0646 14.4546 13.0646L13.1695 11.9497L13.1812 11.659C13.1812 11.659 13.203 11.5659 13.1608 11.4104C13.1245 11.2767 13.0954 11.2025 13.0649 11.156C12.9747 11.0179 12.8643 11.0324 12.8643 11.0324L9.81306 10.544Z" fill="#39200A"/>
<path d="M7.81914 4.20029C7.81914 4.20029 7.13738 3.35862 7.42811 2.02563C7.71884 0.692631 8.91665 -0.166476 10.2744 0.0268591C11.6321 0.220194 12.1772 1.50522 12.1772 1.50522C12.1772 1.50522 12.1379 3.10714 10.6712 3.88339C9.20447 4.65964 7.81914 4.20029 7.81914 4.20029Z" fill="#E39C59"/>
<path d="M9.71747 0.451268C10.0387 0.634428 9.86429 0.839393 9.37877 1.15338C8.92814 1.44556 8.38593 2.30467 8.23911 2.52272C8.09229 2.74077 7.99635 2.76548 7.92367 2.71605C7.85098 2.66663 7.62131 2.54598 7.82627 1.85549C8.03124 1.16501 8.57781 0.728915 8.84383 0.570468C9.1113 0.414927 9.46308 0.305904 9.71747 0.451268Z" fill="#FEFCFB"/>
<path d="M8.40773 4.76433C8.40773 4.76433 9.0924 5.22078 9.83085 5.2295C10.8731 5.23968 11.3281 4.78904 11.3281 4.78904C11.3281 4.78904 11.8209 4.73817 12.1727 4.92133C12.4809 5.08123 12.5666 5.43883 12.5666 5.43883C12.5666 5.43883 12.241 6.2863 9.86865 6.22234C7.49484 6.15838 7.25789 5.67432 7.25789 5.67432C7.25789 5.67432 7.19538 5.17571 7.6184 4.9315C7.97309 4.72508 8.40773 4.76433 8.40773 4.76433Z" fill="#E39C59"/>
<path d="M7.96865 5.01576C7.74188 4.99395 7.39446 5.1335 7.43661 5.44168C7.47877 5.74985 8.18233 5.8894 8.52249 5.90975C8.86264 5.9301 9.40631 5.97371 9.39468 5.65391C9.3845 5.33411 8.56464 5.49401 8.24484 5.32393C7.92504 5.15385 8.29863 5.04774 7.96865 5.01576Z" fill="#FEFCFB"/>
<path d="M8.66164 7.38231C8.66164 7.38231 9.09628 7.57129 10.0004 7.57129C10.9046 7.57129 11.364 7.26166 11.364 7.26166C11.364 7.26166 11.3625 8.28503 11.7884 9.31712C12.2144 10.3492 12.5225 10.8493 12.5225 10.8493C12.5225 10.8493 12.8002 10.8304 12.9063 10.9161C13.0124 11.0019 13.1156 11.2621 13.1156 11.2621C13.0807 11.3101 12.3234 12.0122 10.0484 11.9628C7.62228 11.9104 6.72974 11.2766 6.72974 11.2766C6.72974 11.2766 6.87219 11.0397 7.035 10.9859C7.23125 10.9205 7.35771 10.9379 7.35771 10.9379C7.35771 10.9379 8.08599 10.0614 8.38399 9.19937C8.68053 8.33736 8.66164 7.38231 8.66164 7.38231Z" fill="#E39C59"/>
<path d="M9.9483 11.2956C10.8423 11.2956 11.62 11.1153 11.95 11.0194C12.28 10.9234 12.53 10.7621 12.7858 10.8479C12.9297 10.8958 12.985 11.0048 12.985 11.0048C12.985 11.0048 12.0343 11.8044 9.93813 11.723C7.70387 11.6372 6.84912 11.1255 6.84912 11.1255C6.84912 11.1255 6.99449 10.9176 7.32156 10.938C7.40878 10.9438 7.49018 10.9685 7.99024 11.0848C8.49029 11.2011 9.07466 11.2956 9.9483 11.2956Z" fill="#FEFCFB"/>
<path d="M6.74052 11.765C6.74052 11.765 8.21307 12.3479 9.94872 12.3712C12.2702 12.4017 13.1831 11.6589 13.1831 11.6589C13.1831 11.6589 13.7282 12.1589 13.9506 12.393C14.173 12.627 14.455 13.0646 14.455 13.0646C14.455 13.0646 13.4825 14.6708 9.92837 14.6389C6.37275 14.6069 5.50928 13.2593 5.50928 13.2593C5.50928 13.2593 5.6968 12.768 6.08492 12.361C6.32332 12.1095 6.74052 11.765 6.74052 11.765Z" fill="#E39C59"/>
<path d="M6.71269 12.4236C6.44812 12.3524 5.92481 12.8815 5.98877 13.2115C6.02075 13.3801 6.11524 13.5677 6.62692 13.7537C7.095 13.9238 7.81891 13.9151 7.81891 13.636C7.81891 13.274 7.19094 13.3074 7.03104 12.9862C6.90457 12.7333 6.98888 12.4992 6.71269 12.4236Z" fill="#FEFCFB"/>
<path d="M5.32186 14.9587C5.2012 15.0939 5.20557 15.3744 5.56171 15.6085C5.94257 15.8585 6.55601 16.2147 7.43546 16.3789C8.33091 16.5461 9.26416 16.4952 9.20601 16.1958C9.16676 15.9908 8.39051 16.2205 7.01391 15.6754C6.20568 15.3555 5.95565 15.1797 5.79139 15.0634C5.68527 14.9863 5.4963 14.7639 5.32186 14.9587ZM6.36412 13.4164C6.64468 13.4164 6.64468 12.9803 6.36412 12.9803C6.08357 12.9803 6.08357 13.4164 6.36412 13.4164Z" fill="#FEFCFB"/>
</g>
</svg>
